<svg width="291" height="172" viewBox="0 0 291 172" fill="none" xmlns="http://www.w3.org/2000/svg">
<ellipse cx="145.5" cy="159.6" rx="11.0454" ry="11.5154" fill="#B3001B"/>
<path fill-rule="evenodd" clip-rule="evenodd" d="M184.994 85.5208C184.994 115.237 167.262 134.869 145.389 134.869C123.515 134.869 105.784 115.237 105.784 85.5208C105.784 55.804 123.515 35.2812 145.389 35.2812C167.262 35.2812 184.994 55.804 184.994 85.5208ZM109.856 85.386C120.904 118.372 151.75 164.169 180.689 85.2235C150.432 6.15921 120.9 52.3986 109.856 85.386Z" fill="#202020"/>
<ellipse cx="145.265" cy="85.1029" rx="15.0405" ry="39.0113" fill="#B3001B"/>
<path d="M194.22 70.7676C224.163 45.8567 282.614 0.50015 288.928 0.5C295.828 0.499836 278.022 32.4611 274.004 35.9862C269.986 39.5114 220.336 77.5827 215.458 77.8177C211.589 78.004 199.88 73.1258 194.365 70.8278C194.316 70.8075 194.268 70.7875 194.22 70.7676Z" fill="#202020"/>
<path d="M203.117 125.441C213.257 121.054 237.154 109.131 251.619 96.535C269.699 80.7895 259.655 81.0245 240.713 90.8948C225.56 98.7911 210.674 106.405 205.126 109.225C202.926 112.202 198.295 118.062 197.377 117.686C197.334 117.668 197.303 117.663 197.282 117.67C196.863 117.809 200.929 122.828 203.117 125.441Z" fill="#202020"/>
<path d="M215.458 77.8177C211.589 78.004 199.88 73.1258 194.365 70.8278L194.22 70.7676C195.081 88.3932 192.441 127.405 146.292 134.925L188.767 135.63L195.321 130.977L203.117 125.441C200.929 122.828 196.863 117.809 197.282 117.67C195.752 117.654 202.274 107.705 203.117 107.429C204.552 106.959 220.336 98.0284 221.197 97.7935C222.059 97.5587 251.906 79.6979 257.646 75.9378C263.385 72.1776 284.623 51.0269 279.744 49.1469C274.865 47.2668 215.745 79.2277 215.458 80.6379C215.247 81.6745 205.7 94.5034 207.135 90.5083C208.57 86.5131 213.449 80.6379 215.458 77.8177Z" fill="#202020"/>
<path d="M188.767 135.63L146.292 134.925L176.714 151.14L180.158 148.085L190.202 144.09C192.498 145.735 201.854 144.748 208.283 140.8C216.319 135.865 251.332 111.659 221.484 123.644C201.108 132.105 195.321 134.22 191.35 135.865C187.38 137.51 191.652 133.777 195.321 130.977L188.767 135.63Z" fill="#202020"/>
<path d="M194.22 70.7676C224.163 45.8567 282.614 0.50015 288.928 0.5C295.828 0.499836 278.022 32.4611 274.004 35.9862C269.986 39.5114 220.336 77.5827 215.458 77.8177M194.22 70.7676C195.081 88.3932 192.441 127.405 146.292 134.925M194.22 70.7676L194.365 70.8278M194.22 70.7676C194.268 70.7875 194.316 70.8075 194.365 70.8278M215.458 77.8177C213.449 80.6379 208.57 86.5131 207.135 90.5083C205.7 94.5034 215.247 81.6745 215.458 80.6379C215.745 79.2277 274.865 47.2668 279.744 49.1468C284.623 51.0269 263.385 72.1776 257.646 75.9378C251.906 79.6979 222.059 97.5587 221.197 97.7935C220.336 98.0284 204.552 106.959 203.117 107.429C202.274 107.705 195.752 117.654 197.282 117.67M215.458 77.8177C211.589 78.004 199.88 73.1258 194.365 70.8278M146.292 134.925L188.767 135.63L195.321 130.977M146.292 134.925L176.714 151.14L180.158 148.085L190.202 144.09C192.498 145.735 201.854 144.748 208.283 140.8C216.319 135.865 251.332 111.659 221.484 123.644C201.108 132.105 195.321 134.22 191.35 135.865C187.38 137.51 191.652 133.777 195.321 130.977M203.117 125.441C213.257 121.054 237.154 109.131 251.619 96.535C269.699 80.7895 259.655 81.0245 240.713 90.8948C225.56 98.7911 210.674 106.405 205.126 109.225C202.926 112.202 198.295 118.062 197.377 117.686C197.334 117.668 197.303 117.663 197.282 117.67M203.117 125.441C200.929 122.828 196.863 117.809 197.282 117.67M203.117 125.441C200.858 126.951 197.841 129.053 195.321 130.977M203.117 125.441L195.321 130.977" stroke="#202020"/>
<path d="M96.7797 70.7676C66.8368 45.8567 8.38594 0.50015 2.0721 0.5C-4.82767 0.499836 12.9778 32.4611 16.9957 35.9862C21.0136 39.5114 70.6634 77.5827 75.5423 77.8177C79.4112 78.004 91.1197 73.1258 96.6352 70.8278C96.6839 70.8075 96.732 70.7875 96.7797 70.7676Z" fill="#202020"/>
<path d="M87.8829 125.441C77.7425 121.054 53.8456 109.131 39.3812 96.535C21.3006 80.7895 31.3454 81.0245 50.2869 90.8948C65.4401 98.7911 80.3255 106.405 85.874 109.225C88.0743 112.202 92.7044 118.062 93.6228 117.686C93.6658 117.668 93.6973 117.663 93.7179 117.67C94.137 117.809 90.0713 122.828 87.8829 125.441Z" fill="#202020"/>
<path d="M75.5423 77.8177C79.4112 78.004 91.1197 73.1258 96.6352 70.8278L96.7797 70.7676C95.9187 88.3932 98.5591 127.405 144.708 134.925L102.233 135.63L95.679 130.977L87.8829 125.441C90.0713 122.828 94.137 117.809 93.7179 117.67C95.2479 117.654 88.7255 107.705 87.8829 107.429C86.448 106.959 70.6634 98.0284 69.8024 97.7935C68.9414 97.5587 39.0942 79.6979 33.3543 75.9378C27.6145 72.1776 6.377 51.0269 11.2559 49.1469C16.1348 47.2668 75.2553 79.2277 75.5423 80.6379C75.7532 81.6745 85.3 94.5034 83.865 90.5083C82.4301 86.5131 77.5512 80.6379 75.5423 77.8177Z" fill="#202020"/>
<path d="M102.233 135.63L144.708 134.925L114.286 151.14L110.842 148.085L100.798 144.09C98.5017 145.735 89.1457 144.748 82.7171 140.8C74.6813 135.865 39.6682 111.659 69.5154 123.644C89.8919 132.105 95.679 134.22 99.6497 135.865C103.62 137.51 99.3483 133.777 95.679 130.977L102.233 135.63Z" fill="#202020"/>
<path d="M96.7797 70.7676C66.8368 45.8567 8.38595 0.50015 2.0721 0.5C-4.82767 0.499836 12.9778 32.4611 16.9957 35.9862C21.0136 39.5114 70.6634 77.5827 75.5423 77.8177M96.7797 70.7676C95.9187 88.3932 98.5591 127.405 144.708 134.925M96.7797 70.7676L96.6352 70.8278M96.7797 70.7676C96.732 70.7875 96.6839 70.8075 96.6352 70.8278M75.5423 77.8177C77.5512 80.6379 82.4301 86.5131 83.865 90.5083C85.3 94.5034 75.7532 81.6745 75.5423 80.6379C75.2553 79.2277 16.1348 47.2668 11.2559 49.1468C6.377 51.0269 27.6145 72.1776 33.3543 75.9378C39.0942 79.6979 68.9414 97.5587 69.8024 97.7935C70.6634 98.0284 86.448 106.959 87.8829 107.429C88.7255 107.705 95.2479 117.654 93.7179 117.67M75.5423 77.8177C79.4112 78.004 91.1197 73.1258 96.6352 70.8278M144.708 134.925L102.233 135.63L95.679 130.977M144.708 134.925L114.286 151.14L110.842 148.085L100.798 144.09C98.5017 145.735 89.1457 144.748 82.7171 140.8C74.6813 135.865 39.6682 111.659 69.5154 123.644C89.8919 132.105 95.679 134.22 99.6497 135.865C103.62 137.51 99.3483 133.777 95.679 130.977M87.8829 125.441C77.7425 121.054 53.8456 109.131 39.3812 96.535C21.3006 80.7895 31.3454 81.0245 50.2869 90.8948C65.4401 98.7911 80.3255 106.405 85.874 109.225C88.0743 112.202 92.7044 118.062 93.6228 117.686C93.6658 117.668 93.6973 117.663 93.7179 117.67M87.8829 125.441C90.0713 122.828 94.137 117.809 93.7179 117.67M87.8829 125.441C90.142 126.951 93.1591 129.053 95.679 130.977M87.8829 125.441L95.679 130.977" stroke="#202020"/>
<path d="M114.149 151.375C127.829 147.537 145.431 137.275 176.714 151.375C176.714 151.375 156.624 134.925 145.431 134.925C134.239 134.925 114.149 151.375 114.149 151.375Z" fill="#202020" stroke="#202020"/>
</svg>
