<svg width="209" height="193" viewBox="0 0 209 193" fill="none" xmlns="http://www.w3.org/2000/svg">
<path d="M101.196 0.302091C100.527 0.473212 99.3511 0.935239 98.5838 1.34593C97.441 1.94486 96.8696 2.40688 95.5309 3.81008C94.535 4.83681 93.5065 6.1031 92.9678 6.97582C91.5801 9.23462 81.8501 27.2024 44.6115 96.2156C31.6654 120.207 16.6296 148.1 11.1932 158.162C5.75676 168.241 1.1203 176.951 0.891745 177.515C-0.397973 180.715 -0.283694 184.258 1.20193 187.081C1.44681 187.56 2.24676 188.553 2.96509 189.306C4.45071 190.846 5.85471 191.684 7.9607 192.3L9.20145 192.642L105.179 192.608L201.173 192.557L202.496 192.095C208.422 189.973 210.561 183.556 207.459 177.07C207.116 176.335 192.782 150.033 175.608 118.598C158.433 87.1804 137.928 49.6535 130.043 35.2108C122.142 20.7682 115.203 8.17367 114.599 7.2325C112.673 4.20366 110.224 1.91063 107.759 0.849679C105.718 -0.0401521 103.318 -0.245498 101.196 0.302091ZM127.431 58.6545C140.377 82.3205 160.392 118.941 171.902 140.023L192.847 178.354L148.573 178.405C124.215 178.422 84.3479 178.422 59.9739 178.405L15.65 178.354L42.8484 127.959C94.8942 31.4975 103.661 15.3094 103.808 15.4977C103.873 15.5661 114.501 34.9884 127.431 58.6545Z" fill="#FF0000"/>
<path d="M102.649 57.9015C102.42 57.9528 101.653 58.141 100.951 58.3293C94.584 60.0063 89.4252 66.4404 89.4252 72.6521C89.4252 73.4393 89.7843 76.9986 90.2414 80.5408C90.6822 84.083 92.0862 95.2059 93.3433 105.285C96.6247 131.552 96.5921 131.244 96.8696 132.339C97.5553 135.163 99.1715 137.422 101.294 138.517C102.388 139.081 102.698 139.167 104.037 139.218C106.518 139.338 108.053 138.705 109.718 136.891C111.334 135.094 112.069 133.058 112.591 128.951C112.771 127.514 113.587 121.045 114.403 114.56C115.203 108.091 116.542 97.5161 117.342 91.0306C118.158 84.5622 118.974 78.0938 119.154 76.6564C119.546 73.542 119.562 71.4372 119.219 70.034C117.881 64.5068 113.342 59.7838 107.906 58.2951C106.681 57.9528 103.563 57.7304 102.649 57.9015Z" fill="#FF0000"/>
<path d="M103.171 145.772C97.5389 146.525 93.4738 152.121 94.1595 158.196C94.486 161.036 95.5635 163.347 97.4899 165.212C99.351 167.043 101.359 167.95 103.873 168.121C106.926 168.309 109.359 167.317 111.628 164.921C113.815 162.628 114.762 160.249 114.779 156.964C114.795 154.979 114.566 153.832 113.832 152.172C111.873 147.706 107.644 145.173 103.171 145.772Z" fill="#FF0000"/>
</svg>
