<svg width="75" height="70" viewBox="0 0 75 70" fill="none" xmlns="http://www.w3.org/2000/svg">
<ellipse cx="15.9109" cy="64.8431" rx="4.42494" ry="4.65702" fill="#353535"/>
<path fill-rule="evenodd" clip-rule="evenodd" d="M31.7327 34.8839C31.7327 46.9019 24.6291 54.841 15.8663 54.841C7.1036 54.841 0 46.9019 0 34.8839C0 22.866 7.1036 14.5662 15.8663 14.5662C24.6291 14.5662 31.7327 22.866 31.7327 34.8839ZM1.63138 34.8294C6.05755 48.1695 18.4148 66.6907 30.0081 34.7637C17.8868 2.78873 6.05582 21.4887 1.63138 34.8294Z" fill="#202020"/>
<ellipse cx="15.8168" cy="34.715" rx="6.02545" ry="15.7769" fill="#353535"/>
<path d="M35.4289 28.9174C47.4245 18.843 70.8407 0.500061 73.3702 0.5C76.1343 0.499934 69.0012 13.4256 67.3915 14.8512C65.7819 16.2769 45.8915 31.6736 43.937 31.7686C42.387 31.844 37.6964 29.8711 35.4868 28.9418C35.4673 28.9336 35.448 28.9255 35.4289 28.9174Z" fill="#202020"/>
<path d="M38.9931 51.0283C43.0555 49.2542 52.629 44.4324 58.4236 39.3382C65.6669 32.9705 61.6429 33.0655 54.0546 37.0572C47.984 40.2506 42.0207 43.33 39.7979 44.4705C38.9165 45.6743 37.0616 48.044 36.6936 47.8919C36.6764 47.8848 36.6638 47.8828 36.6556 47.8856C36.4877 47.9418 38.1164 49.9714 38.9931 51.0283Z" fill="#202020"/>
<path d="M43.937 31.7686C42.387 31.844 37.6964 29.8711 35.4868 28.9418L35.4289 28.9174C35.7738 36.0455 34.7161 51.8224 16.2284 54.8637L33.2444 55.1488L35.8699 53.2669L38.9931 51.0283C38.1164 49.9714 36.4877 47.9418 36.6556 47.8856C36.0426 47.8792 38.6555 43.8555 38.9931 43.7439C39.568 43.5537 45.8915 39.9421 46.2364 39.8472C46.5814 39.7522 58.5386 32.529 60.8381 31.0083C63.1375 29.4877 71.6456 20.934 69.691 20.1736C67.7365 19.4133 44.0519 32.3388 43.937 32.9092C43.8525 33.3284 40.0279 38.5166 40.6027 36.9009C41.1776 35.2852 43.1321 32.9092 43.937 31.7686Z" fill="#202020"/>
<path d="M33.2444 55.1488L16.2284 54.8637L28.4156 61.4215L29.7952 60.1859L33.8193 58.5702C34.7391 59.2355 38.4872 58.8364 41.0626 57.2397C44.2819 55.2438 58.3086 45.4545 46.3514 50.3017C38.1883 53.7231 35.8699 54.5785 34.2792 55.2438C32.6885 55.9091 34.3999 54.3995 35.8699 53.2669L33.2444 55.1488Z" fill="#202020"/>
<path d="M35.4289 28.9174C47.4245 18.843 70.8407 0.500061 73.3702 0.5C76.1343 0.499934 69.0012 13.4256 67.3915 14.8512C65.7819 16.2769 45.8915 31.6736 43.937 31.7686M35.4289 28.9174C35.7738 36.0455 34.7161 51.8224 16.2284 54.8637M35.4289 28.9174L35.4868 28.9418M35.4289 28.9174C35.448 28.9255 35.4673 28.9336 35.4868 28.9418M43.937 31.7686C43.1321 32.9092 41.1776 35.2852 40.6027 36.9009C40.0279 38.5166 43.8525 33.3284 43.937 32.9092C44.0519 32.3388 67.7365 19.4133 69.691 20.1736C71.6456 20.934 63.1375 29.4877 60.8381 31.0083C58.5386 32.529 46.5814 39.7522 46.2364 39.8472C45.8915 39.9421 39.568 43.5537 38.9931 43.7439C38.6555 43.8555 36.0426 47.8792 36.6556 47.8856M43.937 31.7686C42.387 31.844 37.6964 29.8711 35.4868 28.9418M16.2284 54.8637L33.2444 55.1488L35.8699 53.2669M16.2284 54.8637L28.4156 61.4215L29.7952 60.1859L33.8193 58.5702C34.7391 59.2355 38.4872 58.8364 41.0626 57.2397C44.2819 55.2438 58.3086 45.4545 46.3514 50.3017C38.1883 53.7231 35.8699 54.5785 34.2792 55.2438C32.6885 55.9091 34.3999 54.3995 35.8699 53.2669M38.9931 51.0283C43.0555 49.2542 52.629 44.4324 58.4236 39.3382C65.6669 32.9705 61.6429 33.0655 54.0546 37.0572C47.984 40.2506 42.0207 43.33 39.7979 44.4705C38.9165 45.6743 37.0616 48.044 36.6936 47.8919C36.6764 47.8848 36.6638 47.8828 36.6556 47.8856M38.9931 51.0283C38.1164 49.9714 36.4877 47.9418 36.6556 47.8856M38.9931 51.0283C38.0881 51.6391 36.8794 52.4891 35.8699 53.2669M38.9931 51.0283L35.8699 53.2669" stroke="#202020"/>
<path d="M3.35134 61.5165C8.83174 59.9642 15.8834 55.8141 28.4155 61.5165C28.4155 61.5165 20.3674 54.8636 15.8834 54.8636C11.3995 54.8637 3.35134 61.5165 3.35134 61.5165Z" fill="#202020" stroke="#202020"/>
</svg>
