<svg width="36" height="34" viewBox="0 0 36 34" fill="none" xmlns="http://www.w3.org/2000/svg">
<path d="M13 25V29C13 30.0609 13.4214 31.0783 14.1716 31.8284C14.9217 32.5786 15.9391 33 17 33H31C32.0609 33 33.0783 32.5786 33.8284 31.8284C34.5786 31.0783 35 30.0609 35 29L35 5C35 3.93914 34.5786 2.92172 33.8284 2.17158C33.0783 1.42143 32.0609 1 31 1L17 1C15.9391 1 14.9217 1.42143 14.1716 2.17157C13.4214 2.92172 13 3.93913 13 5V9" fill="#848C8E"/>
<path d="M13 25V29C13 30.0609 13.4214 31.0783 14.1716 31.8284C14.9217 32.5786 15.9391 33 17 33H31C32.0609 33 33.0783 32.5786 33.8284 31.8284C34.5786 31.0783 35 30.0609 35 29L35 5C35 3.93914 34.5786 2.92172 33.8284 2.17158C33.0783 1.42143 32.0609 1 31 1L17 1C15.9391 1 14.9217 1.42143 14.1716 2.17157C13.4214 2.92172 13 3.93913 13 5V9M25 17L1 17M1 17L7 23M1 17L7 11" stroke="black" stroke-width="2" stroke-linejoin="round"/>
</svg>
